<?xml version="1.0" encoding="utf-8"?>
<!-- Generator: Adobe Illustrator 19.2.1, SVG Export Plug-In . SVG Version: 6.00 Build 0)  -->
<svg version="1.1"
	 id="svg2" xmlns:cc="http://creativecommons.org/ns#" xmlns:dc="http://purl.org/dc/elements/1.1/" xmlns:rdf="http://www.w3.org/1999/02/22-rdf-syntax-ns#" xmlns:svg="http://www.w3.org/2000/svg"
	 xmlns="http://www.w3.org/2000/svg" xmlns:xlink="http://www.w3.org/1999/xlink" x="0px" y="0px" viewBox="0 0 248.6 248.6"
	 style="enable-background:new 0 0 248.6 248.6;" xml:space="preserve">
<style type="text/css">
	.st0{fill:#FF2A2A;}
	.st1{opacity:0.1;}
	.st2{clip-path:url(#path2985_2_);stroke:#000000;stroke-width:8;}
	.st3{fill:#F2F2F2;}
	.st4{fill:#333333;}
</style>
<path id="path2985" class="st0" d="M248.6,124.3c0,68.6-55.6,124.3-124.2,124.3S0,193,0,124.4c0,0,0-0.1,0-0.1
	C0,55.6,55.6,0,124.2,0C192.9-0.1,248.5,55.6,248.6,124.3C248.6,124.2,248.6,124.3,248.6,124.3z"/>
<path class="st1" d="M184.1,91.1L184.1,91.1l-121.6,0v0.2c-23.7,1.9-42.3,21.7-42.3,45.8c0,25.4,20.6,46,46,46
	c17,0,35.9-9.3,43.8-23h29.6c8,13.7,26.8,23,43.8,23c25.4,0,46-20.6,46-46C229.5,111.8,209.2,91.4,184.1,91.1z"/>
<g>
	<defs>
		<path id="path2985_1_" d="M248.6,124.3c0,68.6-55.6,124.3-124.2,124.3S0,193,0,124.4c0,0,0-0.1,0-0.1C0,55.6,55.6,0,124.2,0
			C192.9-0.1,248.5,55.6,248.6,124.3C248.6,124.2,248.6,124.3,248.6,124.3z"/>
	</defs>
	<clipPath id="path2985_2_">
		<use xlink:href="#path2985_1_"  style="overflow:visible;"/>
	</clipPath>
	<path id="path3099" class="st2" d="M125.2,1.5c-2.6,27.4-8.7,40.1-11.1,50.9c-1.2,5.4-1.5,10.4,0.1,16.5c1.6,6,4.9,13.1,11,22.8
		l0.8-0.5c-6.1-9.7-9.4-16.6-10.9-22.5c-1.5-5.9-1.2-10.7-0.1-16c2.4-10.7,8.5-23.6,11.1-51L125.2,1.5L125.2,1.5z"/>
</g>
<path id="path2993" class="st3" d="M112.2,131.1c0,25.4-20.6,46-46,46s-46-20.6-46-46l0,0c0-25.4,20.6-46,46-46
	S112.2,105.6,112.2,131.1z"/>
<path id="path2993-7" class="st3" d="M229.5,131.1c0,25.4-20.6,46-46,46s-46-20.6-46-46l0,0c0-25.4,20.6-46,46-46
	S229.5,105.6,229.5,131.1z"/>
<rect id="rect3031" x="62.5" y="85.1" class="st3" width="121.6" height="69"/>
<path id="rect3035" class="st4" d="M42.1,124.4h43.4c1.3,0,2.3,1,2.3,2.3v8.7c0,1.3-1,2.3-2.3,2.3H42.1c-1.3,0-2.3-1-2.3-2.3v-8.7
	C39.8,125.4,40.8,124.4,42.1,124.4z"/>
<path id="rect3035-4" class="st4" d="M57.8,152.8v-43.4c0-1.3,1-2.3,2.3-2.3h8.7c1.3,0,2.3,1,2.3,2.3v43.4c0,1.3-1,2.3-2.3,2.3h-8.7
	C58.8,155.1,57.8,154.1,57.8,152.8z"/>
<path id="path3055" class="st4" d="M197,112.6c0,5.2-4.2,9.4-9.4,9.4c-5.2,0-9.4-4.2-9.4-9.4s4.2-9.4,9.4-9.4
	C192.8,103.2,197,107.4,197,112.6L197,112.6z"/>
<path id="path3055-0" class="st4" d="M197.1,148.1c0,5.2-4.2,9.4-9.4,9.4s-9.4-4.2-9.4-9.4s4.2-9.4,9.4-9.4S197.1,142.9,197.1,148.1
	L197.1,148.1z"/>
<path id="path3055-9" class="st4" d="M214.7,130.5c0,5.2-4.2,9.4-9.4,9.4c-5.2,0-9.4-4.2-9.4-9.4c0-5.2,4.2-9.4,9.4-9.4
	C210.5,121.1,214.7,125.3,214.7,130.5L214.7,130.5z"/>
<path id="path3055-4" class="st4" d="M179.3,130.5c0,5.2-4.2,9.4-9.4,9.4s-9.4-4.2-9.4-9.4c0-5.2,4.2-9.4,9.4-9.4
	S179.3,125.3,179.3,130.5L179.3,130.5z"/>
<rect id="rect3930" x="107.2" y="114.3" class="st4" width="9.6" height="8"/>
<rect id="rect3930-8" x="133.5" y="114.3" class="st4" width="9.6" height="8"/>
</svg>
